<?xml version="1.0" standalone="no"?><!DOCTYPE svg PUBLIC "-//W3C//DTD SVG 1.1//EN" "http://www.w3.org/Graphics/SVG/1.1/DTD/svg11.dtd"><svg t="1607655832912" class="icon" viewBox="0 0 1024 1024" version="1.1" xmlns="http://www.w3.org/2000/svg" p-id="3153" width="48" height="48" xmlns:xlink="http://www.w3.org/1999/xlink"><defs><style type="text/css"></style></defs><path d="M512 450.865672m-382.089552 0a382.089552 382.089552 0 1 0 764.179104 0 382.089552 382.089552 0 1 0-764.179104 0Z" fill="#FFFFFF" p-id="3154"></path><path d="M653.09803 487.04191l-128.641911-126.242388a17.606687 17.606687 0 0 0-24.40788-0.550209l-0.687761 0.672478-128.534926 126.120119a16.918925 16.918925 0 0 0-5.043582 12.104597c0 9.475821 7.80991 17.148179 17.484418 17.14818 4.73791 0.015284 9.292418-1.879881 12.608955-5.272836l98.456836-96.622806v225.70794c0 9.42997 7.779343 17.071761 17.392717 17.071761 9.628657-0.015284 17.423284-7.641791 17.392716-17.02591V413.879403l99.282149 97.402269c3.270687 3.209552 7.718209 4.997731 12.349135 4.997731 9.674507-0.015284 17.499701-7.687642 17.469134-17.102328v-0.045851a17.056478 17.056478 0 0 0-5.135284-12.07403M657.163463 305.671642h-290.38806c-9.628657 0.045851-17.408 7.672358-17.362149 17.041194v0.030567c0 9.42997 7.76406 17.071761 17.392716 17.071761h290.418627c9.64394-0.045851 17.423284-7.687642 17.377433-17.071761 0.015284-9.399403-7.794627-17.041194-17.438567-17.071761" fill="#0452DD" p-id="3155"></path></svg>